<svg width="512" height="512" viewBox="0 0 512 512" fill="none" xmlns="http://www.w3.org/2000/svg">
<rect width="512" height="512" rx="102" fill="#1B365D"/>
<path d="M255.756 113.658L256.342 113.293L255.756 113.637V113.658Z" fill="url(#paint0_linear_4076_96074)"/>
<path d="M256.342 150.655L255.756 150.311L256.342 150.676V150.655Z" fill="url(#paint1_linear_4076_96074)"/>
<path d="M404.615 204.861C404.615 204.653 404.615 204.445 404.615 204.26C404.615 204.076 404.615 203.244 404.615 202.736C404.615 202.228 404.615 202.182 404.615 201.882C404.615 201.581 404.615 201.35 404.615 201.096C404.615 199.557 404.523 198.079 404.338 196.662C404.338 196.293 404.338 195.9 404.338 195.531C404.35 195.446 404.35 195.361 404.338 195.277C404.338 194.93 404.338 194.584 404.338 194.237C404.338 193.891 404.338 193.891 404.338 193.729V193.083C404.338 192.759 404.338 192.436 404.338 192.09L404.199 190.935C404.199 190.519 404.084 190.103 404.037 189.711C404.049 189.619 404.049 189.526 404.037 189.434C404.037 189.064 404.037 188.695 403.876 188.325C403.889 188.226 403.889 188.125 403.876 188.025C403.876 187.586 403.737 187.147 403.668 186.709C403.668 186.385 403.668 186.062 403.506 185.739L403.368 185C403.368 184.769 403.368 184.538 403.252 184.307C403.137 184.076 403.252 183.96 403.252 183.799C403.252 183.637 403.252 183.175 403.067 182.852C403.015 182.662 402.977 182.469 402.952 182.274L402.813 181.674C402.813 181.374 402.698 181.074 402.628 180.773C402.618 180.635 402.618 180.496 402.628 180.358C402.628 180.057 402.467 179.734 402.397 179.411C402.37 179.247 402.331 179.085 402.282 178.926C402.282 178.672 402.282 178.418 402.097 178.164L401.889 177.378C401.889 177.24 401.889 177.101 401.889 176.963L401.612 175.97C401.612 175.854 401.612 175.739 401.612 175.623C401.612 175.508 401.45 175 401.358 174.7C401.266 174.399 401.358 174.445 401.242 174.33C401.127 174.215 401.058 173.683 400.942 173.36C400.949 173.229 400.949 173.098 400.942 172.967C400.942 172.69 400.757 172.39 400.688 172.113L400.549 171.697C400.549 171.374 400.342 171.074 400.226 170.773C400.198 170.655 400.159 170.539 400.111 170.427C400.111 170.173 399.949 169.896 399.857 169.642L399.602 168.972C399.602 168.764 399.464 168.533 399.371 168.325C399.279 168.118 399.256 168.025 399.21 167.864L398.863 166.94L398.401 165.785L398.032 164.861C397.945 164.689 397.868 164.511 397.801 164.33C397.685 164.053 397.547 163.776 397.431 163.476L396.992 162.506L396.738 161.975C396.6 161.697 396.484 161.397 396.322 161.12C396.161 160.843 396.138 160.727 396.045 160.543L395.768 159.965L395.468 159.388C395.26 158.972 395.052 158.557 394.821 158.141C394.59 157.725 394.659 157.864 394.59 157.702C392.972 154.734 391.142 151.886 389.115 149.18C388.907 148.88 388.676 148.58 388.446 148.303C388.33 148.118 388.191 147.956 388.076 147.795C387.06 146.524 386.02 145.3 384.934 144.123L384.611 143.776L384.38 143.522L383.941 143.083C382.476 141.58 380.934 140.154 379.321 138.811L378.952 138.511L376.642 136.755L375.279 135.762L375.094 135.624L374.655 135.324L373.662 134.654L372.623 133.984L372.161 133.684L371.606 133.361C371.26 133.13 370.89 132.922 370.521 132.714C369.481 132.113 368.419 131.536 367.333 131.005H367.148H366.94L366.455 130.774H366.34L366.062 130.635L365.531 130.405L365.185 130.243L364.931 130.127L364.284 129.85L363.683 129.596L362.852 129.25L361.581 128.765L360.934 128.534L360.288 128.303L357.654 127.472L356.777 127.218L355.806 126.963H355.622L354.513 126.709H354.213L353.704 126.594L353.173 126.478H352.757L351.81 126.271H351.672H351.302L350.447 126.109H350.309L349.177 125.947H349.015L347.583 125.763C346.313 125.601 345.019 125.462 343.726 125.393H342.732H341.762H340.769C339.914 125.393 339.059 125.393 338.205 125.393H335.11H334.509H333.908H333.285H332.661H332.014L330.767 125.509H330.143L328.85 125.67L327.81 125.809H326.956L325.708 126.017H325.2L323.722 126.294L323.167 126.409C321.966 126.64 320.857 126.894 319.518 127.194L318.524 127.448L318.039 127.564L317.392 127.726L316.746 127.887L316.099 128.072L314.805 128.442L314.159 128.626L312.311 129.204L310.925 129.642L310.278 129.873L308.938 130.335L308.338 130.543L307.691 130.797L307.298 130.936C305.704 131.536 304.087 132.16 302.493 132.853L301.616 133.222C299.93 133.961 298.243 134.746 296.557 135.531L295.356 136.132L294.085 136.779L292.861 137.425L291.683 138.049L291.129 138.349L290.205 138.857L288.911 139.596L287.687 140.289L286.463 141.005L285.1 141.836L283.806 142.645L282.582 143.407L282.42 143.522L281.265 144.261L280.087 145.046H279.926L278.748 145.855L277.454 146.732L276.207 147.61L274.913 148.534L273.689 149.434L272.696 150.196L272.21 150.543L271.24 151.305L269.993 152.275L268.93 153.106L268.653 153.337L267.614 154.169L265.997 155.508L265.119 156.247L264.934 156.409L263.802 157.402L262.555 158.464L261.423 159.48L260.014 160.751L257.981 162.644L257.681 162.945C254.601 165.854 251.568 168.934 248.58 172.182L247.61 173.245L246.732 174.191L245.6 175.485L244.977 176.178L244.399 176.847C242.644 178.88 240.911 180.958 239.202 183.083C238.624 183.776 238.07 184.492 237.516 185.207L236.661 186.293L235.829 187.378L234.998 188.487L234.166 189.595L233.358 190.704L231.741 193.013C230.378 194.907 229.061 196.824 227.768 198.787L226.197 201.096L225.435 202.297L224.465 203.822C224.326 204.076 224.164 204.307 224.026 204.537C223.887 204.768 223.864 204.815 223.772 204.93C223.679 205.046 223.379 205.6 223.171 205.923L222.362 207.263C222.131 207.632 221.901 208.002 221.693 208.394L220.237 210.865L219.313 212.459L217.696 215.369L216.888 216.87L216.68 217.262L216.357 217.84V217.978L215.964 218.74C215.952 218.801 215.952 218.864 215.964 218.925C215.87 219.082 215.786 219.244 215.71 219.41C215.548 219.687 215.433 219.941 215.294 220.219L214.878 221.004C213.03 224.637 211.298 228.271 209.681 231.904C209.427 232.435 209.196 232.99 208.965 233.521C208.757 233.983 208.549 234.445 208.364 234.93L208.041 235.669L207.833 236.154L207.625 236.662C207.44 237.101 207.256 237.539 207.094 237.978L206.124 240.288C205.985 240.657 205.847 241.027 205.685 241.396C205.523 241.766 205.177 242.712 204.946 243.359L204.553 244.375V244.699C204.553 244.699 204.553 244.883 204.553 244.976L203.999 246.477C203.745 247.193 203.49 247.909 203.26 248.625C203.144 248.925 203.029 249.248 202.936 249.571L202.382 251.188L201.85 252.828C201.837 252.958 201.837 253.09 201.85 253.22L201.504 254.329L200.95 256.061C200.811 256.592 200.649 257.123 200.488 257.655C200.326 258.186 200.187 258.671 200.049 259.202C199.748 260.195 199.494 261.165 199.217 262.158C199.217 262.412 199.079 262.643 199.032 262.897L198.755 263.982L198.409 265.299C198.224 266.084 198.016 266.892 197.831 267.608L197.623 268.532C197.623 268.671 197.623 268.832 197.508 268.971L197.346 269.687C196.953 271.442 196.607 273.174 196.26 274.906C196.26 275.206 196.26 275.506 196.099 275.807C195.937 276.107 195.868 276.984 195.775 277.585C195.683 278.185 195.775 278.255 195.591 278.601C195.406 278.948 195.591 278.994 195.591 279.202C195.591 279.409 195.475 279.779 195.429 280.079L195.29 281.003L195.152 281.88L195.013 282.758L194.874 283.867C194.874 284.144 194.874 284.444 194.759 284.721C194.643 285.529 194.528 286.361 194.436 287.169C194.423 287.222 194.423 287.278 194.436 287.331C194.436 287.562 194.436 287.816 194.436 288.047V288.255L194.297 289.571C194.286 289.647 194.286 289.725 194.297 289.802C194.297 290.079 194.297 290.333 194.297 290.61C194.308 290.679 194.308 290.749 194.297 290.818C194.308 290.979 194.308 291.142 194.297 291.303V291.465V291.857C194.297 292.088 194.297 292.296 194.297 292.504V292.758C194.308 292.966 194.308 293.174 194.297 293.382V293.566V294.398V295.345C194.297 295.575 194.297 295.806 194.297 296.037V296.869C194.308 296.914 194.308 296.962 194.297 297.007V298.093C194.308 298.185 194.308 298.278 194.297 298.37C194.297 298.693 194.297 299.017 194.297 299.34C194.297 300.102 194.297 300.864 194.297 301.649V302.204C194.309 302.388 194.309 302.573 194.297 302.758V304.421C194.285 304.613 194.285 304.806 194.297 304.998V306.799V307.839C194.297 308.3 194.297 308.762 194.297 309.224C194.285 309.401 194.285 309.579 194.297 309.755C194.297 310.056 194.297 310.379 194.297 310.702C194.309 310.887 194.309 311.072 194.297 311.257V311.603V312.642V312.873V313.404V313.635C194.297 313.635 194.297 313.635 194.297 313.774V314.213C194.297 314.467 194.297 314.721 194.297 314.975V315.852C194.297 316.083 194.297 316.314 194.297 316.545C194.297 316.776 194.297 317.099 194.297 317.377C194.297 317.654 194.297 318.277 194.297 318.716C194.309 318.816 194.309 318.917 194.297 319.016C194.297 319.316 194.297 319.64 194.297 319.963C194.297 320.286 194.436 321.141 194.528 321.741C194.517 321.903 194.517 322.065 194.528 322.226V322.758C194.528 322.942 194.528 323.127 194.528 323.312L194.667 324.282C194.654 324.497 194.654 324.713 194.667 324.928C194.678 325.044 194.678 325.16 194.667 325.275C194.667 325.275 194.667 325.413 194.667 325.483C194.667 325.552 194.667 325.644 194.667 325.737C194.667 325.829 194.667 325.737 194.667 325.921L194.805 326.799C194.816 326.845 194.816 326.892 194.805 326.938V327.261C194.805 327.584 194.921 327.908 194.99 328.231L195.129 328.924C195.117 328.977 195.117 329.032 195.129 329.085V329.478V329.755C195.129 329.755 195.129 329.755 195.129 329.894L195.267 330.587C195.267 330.841 195.383 331.095 195.429 331.326V331.626C195.421 331.749 195.421 331.872 195.429 331.995V332.296V332.457C195.418 332.526 195.418 332.596 195.429 332.665C195.418 332.742 195.418 332.819 195.429 332.896C195.429 332.896 195.429 333.058 195.429 333.127L195.567 333.658C195.567 333.866 195.683 334.097 195.729 334.305L195.983 335.252C201.204 354.605 211.691 370.147 227.352 379.131C236.709 384.459 247.283 387.283 258.051 387.329H262.994L264.911 387.214H265.881C266.828 387.214 267.799 387.029 268.769 386.891L269.739 386.775H270.432L271.679 386.59L272.672 386.429L273.55 386.267L274.636 386.059H274.936L275.745 385.898L276.553 385.713L277.777 385.459L278.563 385.274L280.249 384.835H280.48L281.358 384.604L281.496 384.997L282.49 384.72L284.476 384.119L286.463 383.45L287.456 383.126L288.403 382.78L289.142 382.526L290.32 382.064L291.337 381.694L292.214 381.348L294.316 380.47L295.032 380.17H295.263L296.395 379.685L297.273 379.293L298.266 378.831L299.237 378.369L300.253 377.884L303.233 376.383L304.226 375.851L305.242 375.32L305.589 375.136L306.236 374.766L306.859 374.42L307.552 374.027L308.476 373.496L309.215 373.08L310.209 372.503L310.74 372.156L312.195 371.302L312.634 371.025L312.911 370.84L313.165 370.678L314.135 370.078L314.944 369.547H315.059L315.568 369.223L316.145 368.854L316.376 368.715L316.977 368.3L317.346 368.069L318.178 367.514L318.594 367.237L318.778 367.099L319.518 366.591L320.765 365.69L320.95 365.574L321.342 365.274L321.735 364.997H321.874H322.058L322.382 364.743L323.237 364.12H323.375L323.675 363.889L324.068 363.588L324.599 363.196H324.738L324.969 363.011L325.57 362.549L325.777 362.387L326.055 362.157L326.309 361.972L326.701 361.672L327.002 361.441L327.279 361.21L328.734 360.032L330.005 359.016L330.328 358.739L330.582 358.531L330.929 358.277L331.206 358.023L331.622 357.676L331.783 357.538L332.222 357.168L332.938 356.545H333.054L333.608 356.06H333.747L334.255 355.621L334.393 355.482L334.555 355.344C334.615 355.296 334.669 355.242 334.717 355.182L334.994 354.951L335.826 354.212L336.334 353.75L336.75 353.358L337.443 352.711L337.697 352.503L337.881 352.295L338.228 351.995L339.244 350.355L339.683 349.917H339.799L342.109 347.769L343.009 346.891C343.333 346.591 343.633 346.291 343.933 345.967L344.164 345.76L344.857 345.044L345.158 344.743L345.435 344.466L345.897 343.981L346.659 343.173C347.56 342.203 348.484 341.256 349.362 340.263C349.639 339.986 349.893 339.686 350.17 339.385L351.14 338.3L351.949 337.399L353.034 336.152C353.312 335.852 353.589 335.506 353.866 335.182L354.259 334.744L354.651 334.259C354.906 333.981 355.136 333.681 355.367 333.404L355.622 333.104L356.384 332.18C357.539 330.794 358.694 329.386 359.779 327.931L360.519 326.961C360.662 326.802 360.793 326.632 360.911 326.453C361.05 326.268 361.212 326.083 361.35 325.875L362.089 324.905L363.036 323.635L363.822 322.55L364.099 322.203L365 320.933L365.577 320.125L366.178 319.293V319.178L366.548 318.647L366.94 318.069L368.534 315.76C368.788 315.367 369.042 314.975 369.319 314.582L370.082 313.404L371.56 311.095C371.722 310.864 371.86 310.61 371.999 310.379L372.276 309.963L372.392 309.755C372.599 309.432 372.807 309.132 372.992 308.809V308.67L374.471 306.361C374.725 305.945 374.979 305.529 375.21 305.113L375.949 303.889C376.203 303.474 376.434 303.058 376.665 302.642L377.266 301.603L378.998 298.508L379.552 297.469C379.945 296.776 380.315 296.084 380.684 295.391C381.054 294.698 381.4 294.028 381.77 293.335C382.763 291.372 383.733 289.432 384.68 287.469L385.535 285.668V285.529C385.579 285.41 385.633 285.294 385.697 285.183L387.013 282.296L387.753 281.072C387.804 280.93 387.866 280.791 387.937 280.656C387.937 280.426 388.122 280.195 388.238 279.964L388.653 278.994C388.931 278.324 389.231 277.677 389.485 277.031C389.739 276.384 390.086 275.645 390.363 274.929L390.779 273.89L391.61 271.811C392.026 270.772 392.419 269.71 392.811 268.671L393.92 265.645C394.035 265.253 394.174 264.883 394.313 264.514C394.451 264.144 394.705 263.359 394.89 262.805C395.075 262.25 395.283 261.673 395.468 261.096C395.953 259.594 396.438 258.07 396.9 256.477C397.2 255.461 397.5 254.467 397.778 253.451C398.216 251.95 398.609 250.449 399.002 248.832L399.764 245.853L400.457 242.874C400.665 241.881 400.896 240.888 401.104 239.895C401.312 238.902 401.497 237.932 401.681 236.939C402.236 233.983 402.721 231.05 403.137 228.14C403.321 226.708 403.506 225.253 403.668 223.821C404.305 218.209 404.629 212.565 404.638 206.916C404.638 206.385 404.615 205.577 404.615 204.861ZM371.283 279.063L370.059 281.188L369.573 281.973L369.435 282.204L368.881 283.128L368.28 284.098L366.894 286.407L366.016 287.77C365.923 287.895 365.839 288.026 365.762 288.162L365.138 289.086L364.469 290.079C364.261 290.402 364.053 290.726 363.822 291.049C362.736 292.619 361.65 294.19 360.542 295.668L359.849 296.569L359.179 297.492L358.301 298.624L357.123 300.171L355.737 301.926L355.044 302.781C353.504 304.628 351.964 306.43 350.424 308.185L349.639 309.063C349.362 309.363 349.085 309.686 348.784 309.986L348.23 310.61C347.237 311.695 346.243 312.758 345.227 313.774L344.488 314.536C344.28 314.744 344.072 314.975 343.841 315.183C343.61 315.39 342.917 316.129 342.432 316.591C341.947 317.053 341.739 317.284 341.369 317.607L340.284 318.647L339.591 319.293C339.448 319.451 339.294 319.598 339.129 319.732L338.32 320.471L337.443 321.279L336.588 322.042C333.862 324.351 331.113 326.66 328.341 328.785L327.487 329.432L326.494 330.171L325.546 330.841H325.408L323.814 331.972L322.682 332.734L321.828 333.312L320.88 333.935L320.187 334.374C319.171 335.044 318.155 335.667 317.115 336.291C284.43 357.284 256.087 346.984 256.087 346.984L255.579 346.799L255.094 346.614L254.124 346.245L253.639 346.06L253.177 345.852L252.83 345.713L252.184 345.436L251.814 345.275L251.306 345.044C250.128 344.489 248.996 343.866 247.864 343.219C246.732 342.573 245.3 341.672 244.099 340.91L243.775 340.656C211.922 317.561 210.605 258.139 241.673 204.399L242.528 202.967C243.082 201.997 243.66 201.05 244.237 200.126L245.046 198.856V198.718L245.854 197.447V197.309L246.64 196.062L248.626 193.106L249.319 192.09L249.596 191.674C250.151 190.866 250.705 190.08 251.283 189.364L252.184 188.117L253.154 186.824C253.777 185.97 254.424 185.138 255.071 184.284L256.064 183.037L265.142 172.436C265.489 172.044 265.858 171.674 266.205 171.305L266.343 171.166C266.644 170.82 266.967 170.496 267.29 170.173L268.376 169.065L269.323 168.095L269.67 167.771L270.316 167.125L270.848 166.617L271.656 165.831L272.696 164.838C272.704 164.8 272.704 164.761 272.696 164.723L273.735 163.776L274.844 162.76L275.953 161.767L277.084 160.797L278.216 159.827L279.186 158.995H279.348L280.411 158.118L281.496 157.24L282.49 156.455L282.744 156.247L283.806 155.462L284.938 154.607L286.093 153.753L287.225 152.945L288.357 152.159L288.542 152.021L289.512 151.351L290.505 150.681L290.944 150.381L291.845 149.804L292.954 149.088L295.263 147.725H295.402L296.534 147.056L297.851 146.293L298.89 145.716L300.068 145.069L300.992 144.561L301.477 144.307L302.147 143.961L304.873 142.621L305.566 142.298L306.374 141.929C308.315 141.051 310.255 140.22 312.195 139.504L312.934 139.227L313.604 138.973L313.904 138.857L314.459 138.672L316.03 138.141L316.445 138.003L317.023 137.818L317.762 137.587H317.901L318.64 137.379L319.448 137.148L320.257 136.917L320.95 136.732L322.775 136.271L323.444 136.109H323.652L324.299 135.947H324.807L325.315 135.832L326.771 135.555H327.464C328.272 135.416 329.104 135.277 329.912 135.185L330.721 135.07H331.183H331.714L334.601 134.816H335.086H336.865H337.72C346.811 134.579 355.805 136.738 363.799 141.074L364.238 141.305L364.653 141.536L365.069 141.79L365.485 142.044C400.896 161.697 403.414 223.336 371.283 279.063Z" fill="url(#paint2_linear_4076_96074)"/>
<path d="M194.9 336.338C174.78 324.213 155.446 304.445 140.778 279.064C108.647 223.406 111.165 161.698 146.23 140.498L146.645 140.244L147.061 139.99L147.477 139.759L147.916 139.528C176.004 124.031 215.643 138.257 246.942 171.86C249.929 168.627 252.963 165.547 256.043 162.622C219.477 127.98 175.727 114.309 143.989 131.56L144.197 131.445L144.844 131.121L143.527 131.814L143.088 132.045L142.649 132.299L142.21 132.553L141.795 132.807L140.524 133.592L141.102 133.223C98.8302 159.366 95.9428 234.33 135.003 301.973C136.228 304.098 137.475 306.177 138.769 308.255L139.462 309.364L139.762 309.826C140.386 310.842 141.032 311.835 141.679 312.828C142.672 314.329 143.666 315.83 144.682 317.285L145.306 318.186L145.791 318.855L146.807 320.31L147.847 321.765C148.216 322.227 148.563 322.712 148.909 323.197L149.856 324.467L150.387 325.16C150.595 325.437 150.803 325.738 151.034 326.015L152.189 327.493L152.813 328.301C153.298 328.925 153.783 329.548 154.291 330.149L155.585 331.742L156.486 332.828L157.825 334.421L158.726 335.46C159.188 336.015 159.65 336.546 160.135 337.077L160.99 338.047C161.36 338.463 161.729 338.901 162.122 339.317L163.277 340.564C163.646 340.98 164.016 341.396 164.409 341.788C164.499 341.867 164.584 341.952 164.663 342.042L166.534 344.005L166.765 344.259C167.111 344.583 167.435 344.929 167.781 345.275L168.959 346.453L170.137 347.608L170.9 348.37L171.315 348.763L171.616 349.04L171.824 349.248L171.985 349.409L172.447 349.848L172.655 350.056L173.325 350.68L174.457 351.719L175.473 352.643L175.773 352.92L176.259 353.358L176.651 353.705C176.651 353.705 176.651 353.705 176.767 353.705L177.321 354.19L177.875 354.675L178.476 355.183L178.638 355.321L178.846 355.483H178.984L179.308 355.76L179.631 356.014L179.862 356.222L180.393 356.661L180.578 356.8L181.063 357.192L181.802 357.793L182.172 358.07L182.518 358.347L183.004 358.739L183.235 358.924L183.512 359.132L183.789 359.34L184.066 359.548L184.32 359.756L184.62 359.987L184.851 360.148L185.267 360.472H185.383L185.845 360.818L186.053 360.98H186.191L186.376 361.118L187.069 361.626L187.369 361.857L187.716 362.088L187.993 362.296L189.61 363.451H189.725H189.841L190.326 363.797L190.626 364.005L191.389 364.536L191.804 364.813L192.382 365.183L192.798 365.46L193.029 365.622L193.514 365.945L194.137 366.338L194.484 366.568L196.216 367.654L196.493 367.816C215.504 379.64 235.161 385.875 253.225 385.367H254.149C244.596 385.857 235.058 384.15 226.268 380.379C210.607 371.141 200.12 355.691 194.9 336.338Z" fill="url(#paint3_linear_4076_96074)"/>
<path d="M317.418 335.413V335.205V334.905C317.429 334.859 317.429 334.812 317.418 334.766V334.558C317.408 334.505 317.408 334.45 317.418 334.397V334.05V333.75L317.557 333.173L317.395 333.865C317.395 333.635 317.51 333.427 317.557 333.196L317.695 332.526C317.684 332.473 317.684 332.418 317.695 332.364V332.087V331.787V331.487V331.14C317.695 330.863 317.695 330.586 317.857 330.332C317.868 330.286 317.868 330.239 317.857 330.193V330.055C317.857 329.732 317.995 329.408 318.042 329.085C318.033 328.916 318.033 328.746 318.042 328.577V328.069C318.055 327.9 318.055 327.73 318.042 327.561C318.042 327.561 318.042 327.561 318.042 327.422V327.237V326.799V326.337C318.042 326.337 318.042 326.198 318.042 326.106C318.053 326.014 318.053 325.921 318.042 325.829C318.042 325.575 318.042 325.321 318.157 325.09V324.489C318.168 324.281 318.168 324.073 318.157 323.866C318.169 323.727 318.169 323.588 318.157 323.45V323.057C318.157 322.734 318.157 322.411 318.273 322.087C318.504 320.171 318.665 318.231 318.804 316.244V315.69V315.136V313.727C318.791 313.651 318.791 313.573 318.804 313.496V312.619C318.804 312.365 318.804 312.111 318.804 311.857C318.815 311.703 318.815 311.548 318.804 311.395V308.877V306.476C318.804 305.69 318.804 304.882 318.804 304.166V303.404V302.873C318.804 302.873 318.804 302.711 318.804 302.619V301.857C318.804 301.857 318.804 301.695 318.804 301.603V301.302C318.804 301.118 318.804 300.956 318.804 300.771C318.816 300.618 318.816 300.463 318.804 300.309C318.804 299.94 318.804 299.593 318.804 299.247C318.792 299.416 318.792 299.586 318.804 299.755C318.804 299.409 318.804 299.062 318.804 298.716V298.554V298.208C318.804 297.861 318.804 297.515 318.804 297.169C318.804 296.984 318.804 296.799 318.804 296.637C318.804 296.476 318.804 296.291 318.804 296.106C318.804 295.898 318.804 295.69 318.804 295.483C318.804 295.275 318.804 295.252 318.804 295.136V294.236C318.815 294.167 318.815 294.097 318.804 294.028C318.804 293.866 318.804 293.704 318.804 293.543C318.804 293.381 318.804 293.242 318.804 293.081C318.804 292.919 318.804 292.873 318.804 292.781C318.804 292.688 318.804 292.596 318.804 292.503C318.804 292.503 318.804 292.388 318.804 292.319C318.804 292.249 318.804 292.134 318.804 292.065C318.804 291.995 318.804 291.764 318.804 291.603V290.818V290.309C318.804 289.986 318.804 289.663 318.804 289.34C318.804 289.016 318.804 288.67 318.804 288.346L318.665 287.261V287.122C318.665 286.707 318.55 286.291 318.504 285.875C318.504 285.875 318.504 285.875 318.504 285.737V285.183C318.504 285.183 318.504 285.183 318.504 285.021V284.559C318.504 284.42 318.504 284.259 318.504 284.12C318.504 283.982 318.388 283.381 318.342 283.012L318.065 281.256V280.795V280.333L317.926 279.571V279.086C317.926 278.67 317.788 278.254 317.695 277.839V277.446V277.099C317.695 276.892 317.695 276.684 317.695 276.476V276.222C317.58 275.552 317.441 274.906 317.326 274.236V273.889V273.543C317.141 272.642 316.933 271.742 316.748 270.841L316.402 269.363V269.224C316.032 267.631 315.662 266.037 315.247 264.444L314.831 262.85L314.392 261.234C314.277 260.772 314.138 260.31 314.022 259.871C314.015 259.763 314.015 259.655 314.022 259.548C313.722 258.509 313.422 257.492 313.098 256.453L312.613 254.86C312.452 254.305 312.267 253.774 312.105 253.243L311.574 251.603L311.158 250.379C310.943 249.717 310.712 249.048 310.465 248.37C310.327 247.931 310.165 247.493 310.003 247.054L309.31 245.114C309.148 244.675 308.987 244.236 308.802 243.774C308.617 243.312 308.34 242.504 308.086 241.857L306.839 238.717C306.608 238.139 306.377 237.562 306.123 236.985L305.707 235.992C305.591 235.714 305.499 235.46 305.383 235.206C305.268 234.952 304.968 234.213 304.737 233.728C304.506 233.243 304.275 232.643 304.02 232.112C303.766 231.58 303.535 231.026 303.304 230.472L302.542 228.855L302.219 228.116L301.734 227.123C300.971 225.507 300.186 223.913 299.424 222.297C298.892 221.234 298.338 220.172 297.784 219.133C297.708 218.966 297.623 218.804 297.53 218.648L296.929 217.47C295.774 215.345 294.619 213.197 293.349 211.073C285.361 197.17 275.855 184.196 265.006 172.39L256.09 182.482C261.471 189.331 266.357 196.555 270.711 204.098C301.78 257.931 300.463 317.422 268.633 340.355L268.309 340.609C267.108 341.464 265.861 342.272 264.567 342.918C263.274 343.565 262.257 344.189 261.102 344.743L260.594 344.974L260.224 345.136C258.954 345.713 257.637 346.221 256.344 346.683C256.344 346.683 284.733 357.052 317.464 336.036C317.529 335.855 317.583 335.67 317.626 335.482C317.555 335.462 317.486 335.439 317.418 335.413Z" fill="url(#paint4_linear_4076_96074)"/>
<defs>
<linearGradient id="paint0_linear_4076_96074" x1="255.756" y1="113.465" x2="256.342" y2="113.465" gradientUnits="userSpaceOnUse">
<stop stop-color="#B47F2B"/>
<stop offset="0.15" stop-color="#B47F2B"/>
<stop offset="0.45" stop-color="#E2C062"/>
<stop offset="0.61" stop-color="#F8DF7C"/>
<stop offset="0.72" stop-color="#FFF4A7"/>
<stop offset="0.84" stop-color="#F8DF7C"/>
<stop offset="1" stop-color="#B47F2B"/>
</linearGradient>
<linearGradient id="paint1_linear_4076_96074" x1="255.756" y1="150.462" x2="256.342" y2="150.462" gradientUnits="userSpaceOnUse">
<stop stop-color="#B47F2B"/>
<stop offset="0.15" stop-color="#B47F2B"/>
<stop offset="0.45" stop-color="#E2C062"/>
<stop offset="0.61" stop-color="#F8DF7C"/>
<stop offset="0.72" stop-color="#FFF4A7"/>
<stop offset="0.84" stop-color="#F8DF7C"/>
<stop offset="1" stop-color="#B47F2B"/>
</linearGradient>
<linearGradient id="paint2_linear_4076_96074" x1="191.063" y1="256.315" x2="404.638" y2="256.315" gradientUnits="userSpaceOnUse">
<stop stop-color="#B47F2B"/>
<stop offset="0.15" stop-color="#B47F2B"/>
<stop offset="0.45" stop-color="#E2C062"/>
<stop offset="0.61" stop-color="#F8DF7C"/>
<stop offset="0.72" stop-color="#FFF4A7"/>
<stop offset="0.84" stop-color="#F8DF7C"/>
<stop offset="1" stop-color="#B47F2B"/>
</linearGradient>
<linearGradient id="paint3_linear_4076_96074" x1="107.446" y1="256.316" x2="256.967" y2="256.316" gradientUnits="userSpaceOnUse">
<stop stop-color="#B47F2B"/>
<stop offset="0.15" stop-color="#B47F2B"/>
<stop offset="0.45" stop-color="#E2C062"/>
<stop offset="0.61" stop-color="#F8DF7C"/>
<stop offset="0.72" stop-color="#FFF4A7"/>
<stop offset="0.84" stop-color="#F8DF7C"/>
<stop offset="1" stop-color="#B47F2B"/>
</linearGradient>
<linearGradient id="paint4_linear_4076_96074" x1="256.044" y1="260.702" x2="321.021" y2="260.702" gradientUnits="userSpaceOnUse">
<stop stop-color="#B47F2B"/>
<stop offset="0.15" stop-color="#B47F2B"/>
<stop offset="0.45" stop-color="#E2C062"/>
<stop offset="0.61" stop-color="#F8DF7C"/>
<stop offset="0.85" stop-color="#FFF4A7"/>
<stop offset="0.95" stop-color="#F8DF7C"/>
</linearGradient>
</defs>
</svg>
